<svg xmlns="http://www.w3.org/2000/svg" version="1.1" xmlns:xlink="http://www.w3.org/1999/xlink" xmlns:svgjs="http://svgjs.com/svgjs" width="180" height="180"><svg width="180" height="180" viewBox="0 0 180 180" version="1.1" id="SvgjsSvg1006" xml:space="preserve" inkscape:version="1.3.2 (091e20e, 2023-11-25, custom)" sodipodi:docname="favicon-dark.svg" xmlns:inkscape="http://www.inkscape.org/namespaces/inkscape" xmlns:sodipodi="http://sodipodi.sourceforge.net/DTD/sodipodi-0.dtd" xmlns="http://www.w3.org/2000/svg" xmlns:svg="http://www.w3.org/2000/svg"><sodipodi:namedview id="SvgjsSodipodi:namedview1005" pagecolor="#ffffff" bordercolor="#000000" borderopacity="0.25" inkscape:showpageshadow="2" inkscape:pageopacity="0.0" inkscape:pagecheckerboard="0" inkscape:deskcolor="#d1d1d1" inkscape:document-units="px" inkscape:zoom="2.1796041" inkscape:cx="103.45916" inkscape:cy="84.189602" inkscape:window-width="1920" inkscape:window-height="974" inkscape:window-x="-11" inkscape:window-y="-11" inkscape:window-maximized="1" inkscape:current-layer="layer1"></sodipodi:namedview><defs id="SvgjsDefs1004"></defs><g inkscape:label="Layer 1" inkscape:groupmode="layer" id="SvgjsG1003"><g id="SvgjsG1002" transform="matrix(4.2597991,0,0,4.2597991,-133.01145,-292.72018)"><path style="font-style:normal;font-weight:600;font-size:9.88676px;line-height:1.3;font-family:'Open Sans';-inkscape-font-specification:'Open Sans, Semi-Bold';fill:#0a111b;stroke-width:6.82017;stroke-linecap:round" d="m 62.363457,78.834392 c 1.98145,0 3.61692,0.241128 4.90643,0.723384 1.29999,0.482256 2.26451,1.216124 2.89354,2.201603 0.63951,0.985479 0.95927,2.238296 0.95927,3.758451 0,1.132253 -0.20968,2.096764 -0.62903,2.893535 -0.41935,0.796771 -0.96975,1.457252 -1.6512,1.981443 -0.68145,0.524191 -1.41008,0.943544 -2.18588,1.258058 l 6.52618,10.174554 h -4.26167 l -5.55119,-9.215284 h -3.69555 v 9.215284 H 55.900184 V 78.834392 Z m -0.25161,3.145147 h -2.43749 v 7.516902 h 2.61047 c 1.7508,0 3.01934,-0.324999 3.80563,-0.974996 0.79677,-0.649997 1.19516,-1.609266 1.19516,-2.877809 0,-1.331446 -0.4246,-2.27499 -1.27379,-2.830633 -0.83871,-0.555643 -2.1387,-0.833464 -3.89998,-0.833464 z" id="SvgjsPath1001" sodipodi:nodetypes="sccsssccccccccssccscscs"></path><path style="font-style:normal;font-size:13.9578px;line-height:1.3;font-family:Journal;-inkscape-font-specification:'Journal, Normal';letter-spacing:0px;fill:#c02e50;stroke-width:6.82017;stroke-linecap:round" d="m 50.300583,95.869136 c -0.242495,0.09094 -0.575925,0.378898 -1.000291,0.863888 -0.394055,0.454678 -0.772953,0.697173 -1.136695,0.727485 -1.091227,0.969979 -2.925095,1.955116 -5.501604,2.955411 -0.181871,0.39405 -0.515301,0.62139 -1.000291,0.68201 -0.48499,0.0303 -0.803265,0.12127 -0.954824,0.27281 l -3.364617,0.81842 c -1.424657,0.33343 -2.637132,0.50015 -3.637423,0.50015 -0.757797,0 -1.424658,-0.0909 -2.000583,-0.27281 -0.181871,-0.12125 -0.227339,-0.3789 -0.136404,-0.77295 0.788109,0.12125 1.879336,-0.0303 3.273681,-0.45468 0.06063,-0.21219 0.03031,-0.50015 -0.09094,-0.86389 -0.151559,-0.48499 -0.227339,-0.772953 -0.227339,-0.863888 0.424366,-3.5768 1.106383,-7.365783 2.046051,-11.366949 0.272807,-0.515302 0.515301,-1.242787 0.727484,-2.182454 0.242495,-1.121539 0.439523,-1.86418 0.591082,-2.227922 -0.03031,-0.151559 0.151558,-0.848732 0.545613,-2.091519 0.212183,-0.697173 -0.01516,-1.060915 -0.682017,-1.091227 -0.909355,-1.000291 -1.364033,-1.651996 -1.364033,-1.955115 0,-0.121247 0.01516,-0.242495 0.04547,-0.363743 0.212184,-0.242495 0.530459,-0.363742 0.954824,-0.363742 0.272807,0 0.591081,0.04547 0.954823,0.136402 0.06063,0.03031 0.136406,0.04547 0.227339,0.04547 h 0.04547 l 0.272807,-0.272807 c 0.272807,-0.272807 0.439522,-0.424366 0.500146,-0.454678 0.212184,-0.151559 0.454679,-0.242495 0.727485,-0.272807 0.606237,0.09094 1.106383,0.636548 1.500437,1.63684 -0.03031,0.09094 -0.04547,0.181871 -0.04547,0.272808 0,0.121247 0.06062,0.197026 0.18187,0.227339 h 0.40921 c 0.06063,0 0.19703,-0.03031 0.40921,-0.09094 0.363743,0.272807 1.060916,0.454678 2.091519,0.545613 3.819295,0.757797 6.729234,2.27339 8.729817,4.54678 1.030603,1.151851 1.545905,2.485573 1.545905,4.001166 0,1.151851 -0.333431,2.243078 -1.000292,3.273681 -0.394055,0.788111 -1.606529,2.273393 -3.637424,4.455847 z m 2.500729,-8.911688 C 52.771,86.745265 52.680064,86.42699 52.528505,86.002624 51.770708,84.850773 49.951997,83.668611 47.07237,82.456136 l -3.091811,-0.636549 c -1.212474,-0.242495 -2.273389,-0.33343 -3.182745,-0.272807 -0.212183,1.151851 -0.621394,2.75838 -1.227631,4.819587 -0.666861,2.212766 -1.106383,3.819295 -1.318566,4.819586 -0.242495,0.48499 -0.363742,0.879044 -0.363742,1.182163 0,0.121247 0.01516,0.227339 0.04547,0.318276 -0.181871,0.697173 -0.378898,1.894491 -0.591081,3.591955 -0.212184,1.515593 -0.484991,2.6826 -0.81842,3.501021 0.181871,0.424372 0.257651,0.742642 0.227339,0.954822 h 0.09094 c 1.091227,0 2.500729,-0.39405 4.228505,-1.182161 l 4.092102,-1.909648 c 0.333429,-0.333431 0.833574,-0.71233 1.500435,-1.136696 0.788109,-0.48499 1.30341,-0.833576 1.545905,-1.045759 2.940251,-2.394637 4.577092,-4.895366 4.910522,-7.502187 -0.151559,-0.212183 -0.257651,-0.545613 -0.318274,-1.000291 z" id="SvgjsPath1000" sodipodi:nodetypes="sccccccsccccccccccscscscscccscscccscsssccccccsccccscccccss"></path></g></g></svg><style>@media (prefers-color-scheme: light) { :root { filter: none; } }
@media (prefers-color-scheme: dark) { :root { filter: none; } }
</style></svg>