<?xml version="1.0" standalone="no"?>
<!DOCTYPE svg PUBLIC "-//W3C//DTD SVG 20010904//EN"
 "http://www.w3.org/TR/2001/REC-SVG-20010904/DTD/svg10.dtd">
<svg version="1.0" xmlns="http://www.w3.org/2000/svg"
 width="700.000000pt" height="700.000000pt" viewBox="0 0 700.000000 700.000000"
 preserveAspectRatio="xMidYMid meet">
<metadata>
Created by potrace 1.14, written by Peter Selinger 2001-2017
</metadata>
<g transform="translate(0.000000,700.000000) scale(0.100000,-0.100000)"
fill="#000000" stroke="none">
<path d="M1424 5616 c-51 -16 -69 -29 -145 -100 l-59 -56 -66 15 c-75 17 -164
19 -214 5 -97 -29 -109 -89 -39 -210 8 -14 16 -27 19 -30 3 -3 17 -21 32 -40
14 -19 34 -44 44 -55 11 -11 34 -38 53 -59 18 -22 43 -41 55 -42 69 -8 108
-52 102 -116 -2 -19 -17 -80 -34 -134 -34 -110 -58 -201 -67 -254 -3 -19 -12
-53 -20 -76 -17 -50 -43 -148 -62 -234 -41 -188 -67 -276 -121 -410 -23 -59
-80 -295 -126 -526 -2 -11 -16 -75 -30 -144 -14 -69 -34 -174 -45 -235 -11
-60 -23 -123 -26 -140 -3 -16 -8 -46 -10 -65 -3 -19 -8 -46 -11 -60 -3 -13 -7
-40 -10 -60 -2 -19 -11 -73 -19 -120 -8 -47 -17 -105 -20 -130 -8 -56 -14 -97
-20 -130 -2 -14 -7 -52 -11 -85 -3 -33 -8 -62 -9 -65 -2 -3 -6 -43 -10 -91 -6
-75 -4 -95 19 -170 22 -75 32 -130 27 -166 -1 -11 -43 -29 -87 -37 -11 -2 -37
-9 -59 -15 -22 -5 -53 -13 -70 -15 -16 -3 -41 -9 -55 -12 -14 -3 -81 -8 -150
-10 l-125 -4 -3 -41 c-6 -67 12 -82 119 -104 64 -13 137 -19 229 -19 123 0
178 3 308 19 71 9 316 61 492 105 91 23 172 43 180 45 8 1 57 13 107 25 51 12
95 26 98 31 7 11 66 26 129 34 72 8 131 38 158 79 16 25 38 42 73 55 156 59
447 195 571 266 75 44 194 124 244 165 25 20 58 40 73 44 47 11 97 49 182 136
44 45 98 95 120 110 35 25 135 128 236 244 19 22 47 54 62 70 128 138 296 369
375 516 180 334 152 747 -72 1046 -67 91 -234 257 -338 336 -45 35 -87 65 -93
68 -5 3 -43 27 -83 53 -163 107 -441 228 -675 296 -129 38 -301 77 -377 86
-100 12 -194 35 -247 61 -29 14 -57 22 -63 19 -6 -4 -35 -9 -65 -11 -46 -4
-56 -2 -68 17 -9 11 -13 32 -11 46 6 33 -57 159 -107 212 -37 38 -108 81 -134
80 -5 0 -29 -6 -51 -13z m541 -761 c61 -9 173 -30 250 -46 77 -16 199 -41 270
-56 164 -33 345 -108 590 -246 72 -41 206 -126 215 -136 3 -3 23 -19 45 -35
22 -16 72 -63 112 -103 80 -83 99 -123 128 -262 9 -46 25 -102 34 -125 13 -30
15 -52 10 -81 -4 -22 -10 -56 -14 -75 -24 -133 -129 -371 -233 -525 -128 -189
-324 -403 -512 -555 -30 -25 -61 -51 -68 -58 -8 -7 -66 -47 -131 -88 -201
-132 -253 -168 -301 -211 -42 -38 -126 -82 -324 -173 -38 -17 -81 -37 -301
-140 -68 -32 -137 -62 -255 -112 -14 -6 -32 -14 -40 -18 -78 -37 -360 -107
-450 -111 -71 -3 -75 -1 -77 33 -1 17 -9 52 -18 78 -14 42 -14 51 0 90 19 53
65 222 71 259 2 14 7 37 10 51 7 30 8 35 29 170 9 58 18 119 20 135 6 57 16
130 25 185 5 30 12 73 15 95 4 22 8 47 10 55 2 8 7 35 10 59 4 23 10 53 14 65
5 11 8 46 6 76 -2 51 25 170 45 195 6 8 35 112 45 164 9 45 117 436 160 576
65 212 171 605 191 705 3 14 11 50 18 80 8 30 17 67 20 82 l6 27 133 -4 c72
-2 182 -11 242 -20z"/>
<path d="M4090 5295 c-1 -38 -1 -3733 0 -3760 0 -20 6 -20 308 -19 169 1 309
2 312 3 3 0 5 341 4 756 -1 468 2 758 8 761 6 4 143 6 305 6 258 -1 296 -3
307 -17 9 -13 135 -221 517 -855 5 -8 42 -69 82 -135 40 -67 76 -127 80 -135
3 -8 57 -98 120 -200 l113 -185 347 0 c199 0 347 4 347 9 0 8 -38 69 -215 343
-22 34 -80 125 -130 203 -106 165 -130 203 -403 627 -114 178 -214 334 -222
347 -8 14 -34 54 -56 89 l-42 65 92 45 c299 149 491 345 586 599 36 98 52 199
55 348 7 353 -84 613 -282 802 -149 141 -338 227 -628 287 -44 9 -86 15 -185
27 -108 13 -295 17 -817 18 l-603 1 0 -30z m1188 -499 c54 -3 107 -8 119 -10
11 -3 38 -7 59 -10 148 -23 293 -88 374 -167 52 -52 113 -164 124 -229 3 -19
8 -46 11 -60 7 -30 8 -237 2 -248 -3 -4 -8 -24 -11 -44 -8 -49 -38 -127 -69
-180 -77 -129 -218 -218 -418 -263 -9 -2 -40 -6 -70 -10 -30 -3 -67 -8 -84
-11 -23 -4 -496 -8 -581 -5 l-21 1 0 618 c0 339 3 619 8 622 10 7 437 4 557
-4z"/>
</g>
</svg>
