<?xml version="1.0" encoding="UTF-8"?>
<!-- Created with Inkscape (http://www.inkscape.org/) -->
<svg width="38" height="38" version="1.1" viewBox="0 0 10.054 10.054" xmlns="http://www.w3.org/2000/svg">
 <path d="m5.0329 0.26458c-2.6805 0-4.8473 2.1828-4.8473 4.8832 0 2.1586 1.3884 3.9858 3.3144 4.6325 0.2408 0.0486 0.329-0.10508 0.329-0.23436 0-0.11321-0.01-0.50125-0.01-0.90557-1.3484 0.29111-1.6291-0.58211-1.6291-0.58211-0.2167-0.56594-0.5378-0.71139-0.5378-0.71139-0.4413-0.29914 0.032-0.29914 0.032-0.29914 0.4896 0.03239 0.7465 0.50125 0.7465 0.50125 0.4332 0.74375 1.1313 0.5336 1.4123 0.40422 0.04-0.31531 0.1686-0.5336 0.3049-0.65484-1.0753-0.11321-2.2069-0.5336-2.2069-2.4093 0-0.5336 0.1926-0.97016 0.4976-1.3097-0.048-0.12125-0.2168-0.6226 0.048-1.2936 0 0 0.4093-0.12938 1.3321 0.50125a4.6603 4.6603 0 0 1 1.2119-0.16173c0.4093 0 0.8265 0.05665 1.2118 0.16173 0.923-0.63063 1.3321-0.50125 1.3321-0.50125 0.265 0.67102 0.096 1.1724 0.049 1.2936 0.3131 0.33952 0.4977 0.77608 0.4977 1.3097 0 1.8757-1.1316 2.288-2.215 2.4093 0.1765 0.15359 0.329 0.4446 0.329 0.90546 0 0.65484-0.01 1.1804-0.01 1.342 0 0.12938 0.088 0.28307 0.329 0.23455 1.9261-0.6469 3.3144-2.474 3.3144-4.6326 0.01-2.7004-2.1668-4.8832-4.8391-4.8832z" clip-rule="evenodd" fill="#fff" fill-rule="evenodd" stroke-width=".099219"/>
</svg>
