<?xml version="1.0" encoding="UTF-8"?>
<!-- Created with Inkscape (http://www.inkscape.org/) -->
<svg width="32.137mm" height="8.1941mm" version="1.1" viewBox="0 0 32.137 8.1941" xmlns="http://www.w3.org/2000/svg">
 <g fill="#0a111b" stroke-linecap="round" stroke-width="2.0937">
  <g transform="matrix(.86189 0 0 .86189 -.45418 -.41911)" aria-label="DrawRef">
   <path d="m7.0209 7.0416q-0.11166 0.041873-0.30707 0.2652-0.18145 0.20937-0.34894 0.22332-0.50248 0.44665-1.6889 0.90726-0.083747 0.18145-0.30707 0.20937-0.22332 0.013958-0.29311 0.083747l-1.0329 0.25124q-0.65602 0.15354-1.1166 0.15354-0.34894 0-0.61414-0.083747-0.083747-0.055831-0.041873-0.23728 0.3629 0.055831 1.005-0.13958 0.027916-0.097705-0.027916-0.2652-0.069789-0.22332-0.069789-0.2652 0.19541-1.647 0.6281-3.4894 0.12562-0.23728 0.22332-0.66997 0.11166-0.51644 0.18145-0.68393-0.013958-0.069789 0.16749-0.64206 0.097705-0.32103-0.20937-0.33499-0.41873-0.46061-0.41873-0.60019 0-0.055831 0.013958-0.11166 0.097705-0.11166 0.29311-0.11166 0.12562 0 0.29311 0.041873 0.027916 0.013958 0.069789 0.013958h0.013958l0.083747-0.083747q0.12562-0.12562 0.15354-0.13958 0.097705-0.069789 0.22332-0.083747 0.27916 0.041873 0.46061 0.50248-0.013958 0.041873-0.013958 0.083747 0 0.055831 0.055831 0.069789h0.12562q0.027916 0 0.12562-0.027916 0.16749 0.12562 0.64206 0.16749 1.7587 0.34894 2.6799 1.3958 0.47457 0.5304 0.47457 1.2283 0 0.5304-0.30707 1.005-0.18145 0.3629-1.1166 1.3679zm0.76768-2.7357q-0.013958-0.097705-0.083747-0.29311-0.34894-0.5304-1.6749-1.0887l-0.94913-0.19541q-0.55831-0.11166-0.97705-0.083747-0.097705 0.5304-0.37686 1.4795-0.30707 1.0189-0.40478 1.4795-0.11166 0.22332-0.11166 0.3629 0 0.055831 0.013958 0.097705-0.083747 0.32103-0.18145 1.1027-0.097705 0.69789-0.25124 1.0748 0.083747 0.19541 0.069789 0.29311h0.027916q0.50248 0 1.2981-0.3629 0 0 1.2562-0.58623 0.15354-0.15354 0.46061-0.34895 0.3629-0.22332 0.47457-0.32103 1.3539-1.1027 1.5074-2.303-0.069789-0.097705-0.097705-0.30707zm2.1355 1.5493q0.44665-0.58623 0.93517-1.0887 0.48852-0.51644 1.0748-0.57227 0.2652-0.027916 0.48852 0.083747 0.15354 0.20937 0.18145 0.44665 0 0.12562-0.11166 0.76768l-0.19541 0.027916q-0.041874-0.083747-0.083747-0.55831-0.027916-0.2652-0.12562-0.34894-0.68393 0.20937-1.2562 0.86538-0.2652 0.27916-0.51644 0.55831-0.29311 0.33499-0.39082 0.64206-0.097705 0.013958-0.18145 0.3629-0.069789 0.25124-0.12562 0.32103-0.12562 0.22332-0.37686 0.93517 0.013958 0.11166 0 0.46061-0.055831 0.29311-0.27916 0.3629-0.055831-0.097705-0.11166-0.055831-0.069789 0.069789-0.12562 0.069789-0.11166 0-0.19541-0.18145 0.22332-0.80955 0.97705-3.7546-0.055831-0.12562-0.055831-0.20937 0-0.15354 0.19541-0.19541 0.46061-0.083747 0.48852 0.18145 0 0.027916-0.04187 0.16749-0.04187 0.12562-0.02792 0.33499-0.083747 0.013958-0.097705 0.041873 0 0.027916 0.013958 0.13958l-0.041873 0.12562q0 0.041873-0.013958 0.069789zm5.0667 2.8893q-0.15354 0.069789-0.50248 0.2652-0.18145 0.013958-0.58623-0.22332-0.01396-0.11166-0.11166-0.37686-0.09771-0.2652-0.09771-0.41873-0.11166 0.12562-0.15354 0.22332-0.51644 0.64206-0.60018 0.72581-0.40478 0.34894-0.86538 0.27916-0.37686-0.29311-0.37686-0.86538 0-0.991 0.19541-1.5074 0.48852-1.3399 1.9401-2.3589h0.22332q0.32103 0 0.32103 0.37686 0 0.12562-0.08375 0.50248-0.06979 0.18145-0.30707 0.47457-0.04187 0.097705-0.33499 0.19541 0.06979-0.3629 0.22332-0.55831 0.01396-0.041873 0.06979-0.22332 0.01396-0.027916 0.01396-0.083747 0-0.041873-0.01396-0.097705 0.06979-0.055831 0.06979-0.097705-0.08375-0.013958-0.29311 0.23728-0.04187 0.027916-0.13958 0.12562-1.4377 1.647-1.4656 2.987 0.05583 0.40478 0.25124 0.44665 0.47456-0.12562 0.82351-0.72581 0.39082-0.34894 0.69789-1.2562 0.15354-0.34894 0.57227-1.7726 0.05583-0.12562 0.30707-0.20937 0.12562 0.13958 0.12562 0.30707 0 0.097705-0.05583 0.2652-0.05583 0.20937-0.06979 0.27916-0.55831 1.5354-0.55831 2.0378 0 0.65602 0.2652 0.8933 0.05583-0.013958 0.34894-0.18145 0.25124-0.13958 0.30707-0.13958 0.01396 0.069789 0.01396 0.13958 0 0.2652-0.15354 0.33499zm7.5651-4.4386q-0.09771 0.16749-0.22332 0.40478-0.32103 0.37686-1.2004 1.8564-0.69789 1.1725-1.4097 1.647-0.16749 0.055831-0.32103 0.055831-0.25124 0-0.50248-0.12562-0.15354-0.22332-0.43269-0.61414-0.013958-0.16749-0.15354-0.72581-0.11166-0.44665-0.097705-0.73976-0.18145 0.32103-0.61414 0.93517-0.069789 0.22332-0.30707 0.58623-0.23728 0.3629-0.30707 0.5304-0.22332 0.30707-0.76768 0.86538h-0.40478q-0.32103 0-0.32103-0.32103-0.01396-0.86538 0.15354-2.1355 0.11166-0.92121 0.25124-2.0378 0.01396-0.15354 0.20937-0.15354 0.22332 0 0.30707 0.11166 0.15354 0.20937 0.15354 0.46061 0 0.15354-0.08375 0.47457-0.06979 0.32103-0.06979 0.47457 0.01396 0.15354-0.11166 0.47457-0.08375 0.20937 0.0977 0.41873-0.16749 0.027916-0.16749 0.055831v0.041873q0 0.13958-0.04187 0.3629-0.05583 0.30707-0.06979 0.37686-0.04187 0.37686 0 0.60019 0.22332-0.13958 0.46061-0.5304 0.2652-0.44665 0.40478-0.57227 0.33499-0.69789 1.4237-2.4007 0.15354-0.11166 0.34894-0.11166 0.06979 0 0.15354 0.013958 0.20937 0.097705 0.20937 0.27916 0 0.055831-0.04187 0.22332-0.02792 0.15354-0.01396 0.23728-0.06979 0.11166-0.09771 0.37686-0.01396 0.2652-0.06979 0.3629 0.04187 0.86538 0.05583 0.93517 0.0977 0.54435 0.46061 0.76768 0.12562 0.013958 0.27916-0.27916 0.29311-0.34894 1.3539-1.8983 0.79559-1.1585 1.4516-1.8145h0.2652q-0.05583 0.27916-0.20937 0.5304z" fill="#c02e50"/>
   <path d="m23.959 1.8122q0.9124 0 1.5062 0.22207 0.59861 0.22207 0.88826 0.67585 0.29448 0.45379 0.29448 1.1538 0 0.52137-0.1931 0.88826-0.1931 0.36689-0.50689 0.60827t-0.67102 0.3862l2.0034 3.1234h-1.3083l-1.7041-2.8289h-1.1345v2.8289h-1.1586v-7.0578zm-0.07724 0.9655h-0.74827v2.3076h0.80137q0.8062 0 1.1683-0.29931 0.36689-0.29931 0.36689-0.88344 0-0.61309-0.39103-0.86895-0.3862-0.25586-1.1972-0.25586zm6.4206 0.64689q0.71447 0 1.2262 0.29448t0.78689 0.83516q0.27517 0.54068 0.27517 1.2938v0.60827h-3.5675q0.01931 0.77723 0.41517 1.1972 0.40068 0.41999 1.12 0.41999 0.51172 0 0.91723-0.09655 0.41034-0.10138 0.84482-0.29448v0.92206q-0.40068 0.18827-0.81585 0.27517-0.41517 0.086895-0.99447 0.086895-0.78688 0-1.3855-0.30413-0.59378-0.30896-0.93171-0.91723-0.3331-0.60827-0.3331-1.511 0-0.89792 0.30413-1.5255 0.30413-0.62758 0.85447-0.95585t1.2841-0.32827zm0 0.85447q-0.53586 0-0.86895 0.34758-0.32827 0.34758-0.3862 1.0186h2.4331q-0.004828-0.40068-0.13517-0.70965-0.12552-0.30896-0.3862-0.48275-0.25586-0.17379-0.65654-0.17379zm6.2372 0.11103h-1.2986v4.4799h-1.1345v-4.4799h-0.87378v-0.54551l0.87378-0.3331v-0.37172q0-0.68068 0.21241-1.0814 0.21724-0.40068 0.61792-0.57447 0.40551-0.17862 0.9655-0.17862 0.36689 0 0.67102 0.062758 0.30413 0.05793 0.51172 0.13517l-0.29448 0.8593q-0.16414-0.053103-0.36689-0.09655-0.20276-0.048275-0.43448-0.048275-0.3862 0-0.56965 0.24138-0.17862 0.24138-0.17862 0.70482v0.36206h1.2986z"/>
  </g>
  <text transform="matrix(.86189 0 0 .86189 -.45418 -.41911)" x="1.772763" y="8.8700428" display="none" font-family="Aleo" font-size="13.958px" font-style="italic" style="line-height:1.3" xml:space="preserve"><tspan x="1.772763" y="8.8700428" font-family="Journal" font-size="13.958px" font-style="normal" stroke-width="2.0937" style="font-variant-caps:normal;font-variant-east-asian:normal;font-variant-ligatures:normal;font-variant-numeric:normal"><tspan dx="0" fill="#c02e50" letter-spacing="0px">Draw</tspan><tspan dx="-0.82427824" fill="#0a111b" font-family="'Open Sans'" font-size="9.8868px" font-style="normal" font-weight="600" style="font-variant-caps:normal;font-variant-east-asian:normal;font-variant-ligatures:normal;font-variant-numeric:normal">Ref</tspan></tspan></text>
 </g>
</svg>
